<svg width="43" height="26" viewBox="0 0 43 26" fill="none" xmlns="http://www.w3.org/2000/svg">
<path d="M28.4487 25.5C29.245 23.2208 30.0148 21.2265 30.7581 19.5171C31.5544 17.8077 33.2567 15.6396 34 14.5H5.84466C5.84466 14.5 2.92233 14.375 0 15C0 15 2.92233 13.9375 2.92233 13C2.92233 12.0625 0 11 0 11C2.92233 11.625 5.84466 11.5 5.84466 11.5H34C33.2567 10.2892 31.5544 8.08547 30.7581 6.37607C30.0148 4.66667 29.245 2.70798 28.4487 0.5H31.2359C34.5805 5.69943 38.0844 9.54559 41.7476 12.0385L43 13L41.7476 13.9615C38.0844 16.3832 34.5805 20.2293 31.2359 25.5H28.4487Z" fill="black"/>
</svg>
