<svg width="194" height="40" viewBox="0 0 194 40" fill="none" xmlns="http://www.w3.org/2000/svg">
<path d="M0 39.2974V38.394C1.00539 38.3271 1.7462 38.1932 2.22243 37.9925C2.69867 37.7583 3.01616 37.3568 3.1749 36.788C3.33365 36.1857 3.41302 35.2823 3.41302 34.0778V8.98369C3.41302 7.77917 3.33365 6.89251 3.1749 6.32372C3.01616 5.72146 2.69867 5.30322 2.22243 5.06901C1.7462 4.8348 1.00539 4.70096 0 4.6675V3.76412C0.767269 3.79757 1.66682 3.8143 2.69867 3.8143C3.75697 3.8143 5.04016 3.8143 6.54824 3.8143C7.26259 3.8143 7.99018 3.8143 8.73099 3.8143C9.4718 3.78085 10.1597 3.76412 10.7947 3.76412C11.4561 3.76412 11.9985 3.76412 12.4218 3.76412C17.5546 3.76412 21.4438 5.20284 24.0896 8.0803C26.7353 10.9578 28.0582 15.1736 28.0582 20.7277C28.0582 24.609 27.4232 27.9381 26.1533 30.7152C24.9098 33.4588 23.1107 35.5834 20.7559 37.0891C18.4012 38.5613 15.5703 39.2974 12.2631 39.2974C11.6281 39.2974 10.8476 39.2806 9.92158 39.2472C9.02202 39.1803 7.89757 39.1468 6.54824 39.1468C5.19891 39.1468 3.9554 39.1635 2.81773 39.197C1.68005 39.2304 0.740811 39.2639 0 39.2974ZM12.5409 38.394C15.6893 38.394 17.9779 37.0556 19.4066 34.3789C20.8353 31.6688 21.5497 27.3693 21.5497 21.4806C21.5497 15.5583 20.8353 11.2756 19.4066 8.63237C17.9779 5.95567 15.6496 4.61731 12.4218 4.61731H9.60409V34.1782C9.60409 35.3492 9.68346 36.2359 9.8422 36.8381C10.0009 37.4404 10.292 37.8586 10.7153 38.0928C11.1386 38.2936 11.7471 38.394 12.5409 38.394Z" fill="black"/>
<path d="M39.4088 40C37.5039 40 35.8238 39.5149 34.3687 38.5445C32.9135 37.5408 31.7626 36.0351 30.9159 34.0276C30.0958 32.0201 29.6857 29.4605 29.6857 26.3488C29.6857 23.2371 30.0958 20.6775 30.9159 18.67C31.7626 16.629 32.9135 15.1234 34.3687 14.1531C35.8503 13.1493 37.5303 12.6474 39.4088 12.6474C41.3138 12.6474 42.9938 13.1493 44.449 14.1531C45.9041 15.1234 47.0418 16.629 47.862 18.67C48.6822 20.6775 49.0923 23.2371 49.0923 26.3488C49.0923 29.4605 48.6822 32.0201 47.862 34.0276C47.0418 36.0351 45.9041 37.5408 44.449 38.5445C42.9938 39.5149 41.3138 40 39.4088 40ZM39.4088 39.0966C40.4936 39.0966 41.3931 38.1096 42.1075 36.1355C42.8483 34.128 43.2187 30.8657 43.2187 26.3488C43.2187 21.7984 42.8483 18.5194 42.1075 16.5119C41.3931 14.5044 40.4936 13.5006 39.4088 13.5006C38.2976 13.5006 37.3848 14.5044 36.6705 16.5119C35.9561 18.5194 35.5989 21.7984 35.5989 26.3488C35.5989 30.8657 35.9561 34.128 36.6705 36.1355C37.3848 38.1096 38.2976 39.0966 39.4088 39.0966Z" fill="black"/>
<path d="M49.336 39.2974V38.394C50.3414 38.3271 51.0822 38.1932 51.5584 37.9925C52.0346 37.7583 52.3521 37.3568 52.5109 36.788C52.6696 36.1857 52.749 35.2823 52.749 34.0778V8.98369C52.749 7.77917 52.6696 6.89251 52.5109 6.32372C52.3521 5.72146 52.0214 5.30322 51.5187 5.06901C51.0425 4.8348 50.3149 4.70096 49.336 4.6675V3.76412C52.0082 3.86449 56.2811 3.91468 62.1546 3.91468C63.2129 3.91468 64.2183 3.91468 65.1708 3.91468C66.1233 3.88122 67.0228 3.86449 67.8695 3.86449C68.7161 3.83103 69.4834 3.79757 70.1713 3.76412C70.1977 5.83856 70.2639 7.82936 70.3697 9.73651C70.4755 11.6102 70.6211 13.3835 70.8063 15.0565H70.0919C69.7215 12.5471 69.2453 10.5395 68.6632 9.03388C68.0811 7.52823 67.3403 6.45755 66.4408 5.82183C65.5412 5.15266 64.4168 4.81807 63.0674 4.81807H58.9401V34.0778C58.9401 35.2823 59.0327 36.1857 59.2179 36.788C59.4295 37.3568 59.8396 37.7583 60.4481 37.9925C61.0831 38.1932 62.062 38.3271 63.3849 38.394V39.2974C62.5912 39.2639 61.5593 39.2304 60.2894 39.197C59.0459 39.1635 57.604 39.1468 55.9636 39.1468C54.7995 39.1468 53.6485 39.1635 52.5109 39.197C51.3732 39.2304 50.3149 39.2639 49.336 39.2974ZM57.7495 22.133V21.2798H64.6152V22.133H57.7495ZM66.1233 30.2133C65.991 28.3731 65.7132 26.8674 65.2899 25.6964C64.8665 24.4918 64.2977 23.6052 63.5834 23.0364C62.869 22.4341 61.9959 22.133 60.9641 22.133V21.2798C62.3399 21.2798 63.4643 20.6608 64.3374 19.4228C65.2105 18.1849 65.7661 16.3781 66.0042 14.0025H66.6789C66.5731 16.0435 66.5201 17.6161 66.5201 18.7202C66.5466 19.8243 66.5598 20.8281 66.5598 21.7315C66.5598 22.4676 66.5598 23.2204 66.5598 23.99C66.5863 24.7595 66.6127 25.6294 66.6392 26.5997C66.6921 27.5701 66.745 28.7746 66.7979 30.2133H66.1233Z" fill="black"/>
<path d="M70.6119 39.2974V38.394C71.6966 38.3605 72.4639 38.1096 72.9137 37.6412C73.3634 37.1393 73.5883 36.1857 73.5883 34.7804V18.6198C73.5883 17.1142 73.3634 16.0268 72.9137 15.3576C72.4903 14.6884 71.7231 14.3036 70.6119 14.2033V13.3501C71.0881 13.3835 71.5511 13.417 72.0009 13.4504C72.4771 13.4839 72.9401 13.5006 73.3899 13.5006C74.5011 13.5006 75.533 13.4504 76.4854 13.3501C77.4644 13.2162 78.3639 13.0322 79.1841 12.798V34.7804C79.1841 36.1857 79.409 37.1393 79.8588 37.6412C80.3085 38.1096 81.0758 38.3605 82.1606 38.394V39.2974C81.8166 39.2639 81.3272 39.2472 80.6922 39.2472C80.0837 39.2137 79.409 39.1803 78.6682 39.1468C77.9538 39.1133 77.2262 39.0966 76.4854 39.0966C75.3742 39.0966 74.2498 39.1301 73.1121 39.197C72.0009 39.2304 71.1675 39.2639 70.6119 39.2974ZM76.287 8.0803C75.4668 8.0803 74.726 7.74571 74.0646 7.07654C73.4031 6.40736 73.0724 5.47052 73.0724 4.266C73.0724 3.06148 73.4031 2.12463 74.0646 1.45546C74.726 0.752822 75.4668 0.401505 76.287 0.401505C77.1336 0.401505 77.8877 0.752822 78.5491 1.45546C79.2106 2.12463 79.5413 3.04475 79.5413 4.21581C79.5413 5.45379 79.2106 6.40736 78.5491 7.07654C77.8877 7.74571 77.1336 8.0803 76.287 8.0803Z" fill="black"/>
<path d="M81.5113 39.2974V38.394C82.649 38.3271 83.4295 38.0427 83.8528 37.5408C84.2761 37.0389 84.4878 36.1188 84.4878 34.7804V18.6198C84.4878 17.0807 84.2629 15.9933 83.8131 15.3576C83.3634 14.6884 82.5961 14.3036 81.5113 14.2033V13.3501C82.2257 13.3835 82.7945 13.417 83.2178 13.4504C83.6412 13.4839 84.1174 13.5006 84.6466 13.5006C86.7102 13.5006 88.5226 13.2664 90.0836 12.798V34.3287C90.0836 35.8009 90.3878 36.8381 90.9964 37.4404C91.6313 38.0092 92.7029 38.3271 94.2109 38.394V39.2974C93.7612 39.2639 93.1526 39.2472 92.3854 39.2472C91.6446 39.2137 90.8376 39.1803 89.9645 39.1468C89.0914 39.1133 88.2448 39.0966 87.4246 39.0966C86.2075 39.0966 85.0434 39.1301 83.9322 39.197C82.8474 39.2304 82.0405 39.2639 81.5113 39.2974ZM96.1953 22.133C95.5603 22.133 95.0311 21.8988 94.6078 21.4304C94.2109 20.9619 94.0125 20.343 94.0125 19.5734C94.0125 19.0715 94.0919 18.6198 94.2506 18.2183C94.4094 17.8168 94.5549 17.432 94.6872 17.064C94.8459 16.6625 94.9253 16.261 94.9253 15.8595C94.9253 15.0565 94.5417 14.655 93.7744 14.655C93.3246 14.655 92.8484 14.7888 92.3457 15.0565C91.843 15.3241 91.3932 15.6922 90.9964 16.1606C90.5995 16.5956 90.282 17.1309 90.0439 17.7666L90.0042 16.7629C90.5863 15.4914 91.38 14.4877 92.3854 13.7516C93.4172 13.0155 94.4623 12.6474 95.5206 12.6474C96.6847 12.6474 97.5843 13.0824 98.2193 13.9523C98.8807 14.8223 99.2114 16.01 99.2114 17.5157C99.2114 18.921 98.9336 20.0418 98.378 20.8783C97.8489 21.7148 97.1213 22.133 96.1953 22.133Z" fill="black"/>
<path d="M107.404 40C106.319 40 105.42 39.8494 104.705 39.5483C104.017 39.2472 103.435 38.9628 102.959 38.6951C102.483 38.4274 102.046 38.2936 101.649 38.2936C100.935 38.2936 100.419 38.8289 100.102 39.8996H99.3872C99.4666 38.9293 99.5195 37.9423 99.546 36.9385C99.5724 35.9013 99.5857 34.7804 99.5857 33.5759C99.6121 32.3714 99.5989 31.0498 99.546 29.611H100.221C100.697 32.7896 101.491 35.1652 102.602 36.7378C103.739 38.2769 105.208 39.0464 107.007 39.0464C108.251 39.0464 109.216 38.6784 109.904 37.9423C110.618 37.2062 110.976 36.1857 110.976 34.8808C110.976 33.6763 110.618 32.6725 109.904 31.8695C109.216 31.033 107.999 30.2468 106.253 29.5107C104.031 28.5404 102.39 27.3358 101.332 25.8971C100.274 24.4249 99.7444 22.6349 99.7444 20.527C99.7444 18.1179 100.353 16.2108 101.57 14.8055C102.787 13.3668 104.414 12.6474 106.451 12.6474C107.457 12.6474 108.303 12.7813 108.991 13.0489C109.679 13.3166 110.261 13.601 110.738 13.9021C111.24 14.2033 111.677 14.3538 112.047 14.3538C112.365 14.3538 112.616 14.22 112.801 13.9523C113.013 13.6847 113.185 13.2831 113.317 12.7478H113.992C113.939 13.5508 113.886 14.3706 113.833 15.207C113.807 16.0435 113.793 16.9636 113.793 17.9674C113.82 18.9711 113.846 20.1924 113.873 21.6311H113.158C112.735 19.0548 111.981 17.064 110.896 15.6587C109.811 14.2535 108.515 13.5508 107.007 13.5508C105.922 13.5508 105.062 13.9021 104.427 14.6048C103.792 15.3074 103.475 16.2777 103.475 17.5157C103.475 18.7871 103.859 19.8578 104.626 20.7277C105.42 21.5642 106.756 22.3672 108.634 23.1368C110.724 23.9732 112.259 25.0774 113.238 26.4492C114.217 27.7875 114.706 29.5441 114.706 31.7189C114.706 34.2953 114.058 36.3195 112.762 37.7917C111.465 39.2639 109.679 40 107.404 40Z" fill="black"/>
<path d="M123.625 40C121.667 40 120.212 39.3141 119.26 37.9423C118.307 36.537 117.831 34.4291 117.831 31.6186V14.2534H114.18V13.3501H117.831V6.12296C118.916 6.0895 119.908 5.98913 120.808 5.82183C121.734 5.65454 122.607 5.42032 123.427 5.1192V13.3501H128.467V14.2534H123.427V34.4793C123.427 35.5834 123.599 36.4199 123.943 36.9887C124.313 37.5575 124.856 37.8419 125.57 37.8419C126.311 37.8419 126.946 37.4906 127.475 36.788C128.004 36.0519 128.441 34.9812 128.785 33.5759L129.34 33.877C128.811 36.0184 128.097 37.5742 127.197 38.5445C126.298 39.5149 125.107 40 123.625 40Z" fill="black"/>
<path d="M128.054 39.2974V38.394C129.033 38.3271 129.761 38.1932 130.237 37.9925C130.74 37.7917 131.071 37.3902 131.229 36.788C131.388 36.1857 131.467 35.2823 131.467 34.0778V8.98369C131.467 7.77917 131.388 6.87578 131.229 6.27353C131.071 5.67127 130.753 5.26976 130.277 5.06901C129.801 4.8348 129.06 4.70096 128.054 4.6675V3.76412C129.033 3.79757 130.092 3.83103 131.229 3.86449C132.367 3.89795 133.518 3.91468 134.682 3.91468C136.322 3.91468 137.764 3.89795 139.008 3.86449C140.278 3.83103 141.31 3.79757 142.103 3.76412V4.6675C140.78 4.70096 139.802 4.8348 139.167 5.06901C138.558 5.26976 138.148 5.67127 137.936 6.27353C137.751 6.87578 137.658 7.77917 137.658 8.98369V34.68C137.658 35.6838 137.711 36.4534 137.817 36.9887C137.95 37.4906 138.201 37.8252 138.571 37.9925C138.942 38.1598 139.484 38.2434 140.198 38.2434H141.389C142.527 38.2434 143.545 38.0092 144.445 37.5408C145.344 37.0389 146.151 36.2861 146.866 35.2823C147.58 34.2785 148.228 33.0238 148.81 31.5182C149.392 30.0125 149.922 28.2392 150.398 26.1982H151.112C150.953 28.5069 150.821 30.7486 150.715 32.9235C150.636 35.0983 150.596 37.2229 150.596 39.2974C149.564 39.2304 148.281 39.197 146.747 39.197C145.212 39.1635 143.307 39.1468 141.032 39.1468C138.174 39.1468 135.648 39.1635 133.452 39.197C131.256 39.197 129.457 39.2304 128.054 39.2974Z" fill="black"/>
<path d="M157.051 40C155.437 40 154.14 39.4479 153.162 38.3438C152.209 37.2062 151.733 35.7005 151.733 33.8269C151.733 32.3547 151.997 31.1501 152.527 30.2133C153.056 29.2765 153.73 28.5236 154.551 27.9548C155.397 27.3526 156.284 26.8507 157.21 26.4492C158.136 26.0477 159.009 25.6629 159.829 25.2949C160.675 24.9268 161.35 24.5086 161.853 24.0402C162.382 23.5383 162.647 22.9025 162.647 22.133V18.0678C162.647 16.629 162.369 15.5416 161.813 14.8055C161.284 14.036 160.504 13.6512 159.472 13.6512C158.651 13.6512 157.977 13.8352 157.448 14.2033C156.919 14.5379 156.654 14.9895 156.654 15.5583C156.654 15.9933 156.773 16.445 157.011 16.9134C157.249 17.3484 157.487 17.8168 157.725 18.3187C157.964 18.8206 158.083 19.3894 158.083 20.0251C158.083 20.7946 157.845 21.4304 157.368 21.9322C156.892 22.4007 156.257 22.6349 155.463 22.6349C154.617 22.6349 153.942 22.317 153.439 21.6813C152.937 21.0121 152.685 20.1422 152.685 19.0715C152.685 17.8001 153.042 16.6792 153.757 15.7089C154.471 14.7386 155.463 13.9858 156.733 13.4504C158.03 12.9151 159.498 12.6474 161.139 12.6474C162.885 12.6474 164.274 12.9486 165.306 13.5508C166.364 14.1196 167.118 15.0899 167.568 16.4617C168.044 17.8001 168.282 19.6236 168.282 21.9322V36.1857C168.282 36.9552 168.361 37.5073 168.52 37.8419C168.679 38.1765 168.93 38.3438 169.274 38.3438C169.592 38.3438 169.909 38.2434 170.227 38.0427C170.544 37.8084 170.848 37.5408 171.139 37.2397L171.457 37.9925C170.848 38.6282 170.161 39.1133 169.393 39.4479C168.626 39.816 167.74 40 166.734 40C164.089 40 162.739 38.6282 162.686 35.8846C162.025 37.2898 161.231 38.3271 160.305 38.9962C159.379 39.6654 158.294 40 157.051 40ZM159.948 36.9887C160.477 36.9887 160.967 36.8214 161.416 36.4868C161.893 36.1522 162.303 35.6504 162.647 34.9812V23.5383C162.541 24.1071 162.289 24.6257 161.893 25.0941C161.496 25.5291 161.033 25.964 160.504 26.399C160.001 26.834 159.498 27.3358 158.995 27.9046C158.519 28.44 158.109 29.1092 157.765 29.9122C157.448 30.6817 157.289 31.6186 157.289 32.7227C157.289 34.0945 157.527 35.1485 158.003 35.8846C158.48 36.6207 159.128 36.9887 159.948 36.9887Z" fill="black"/>
<path d="M183.166 39.2974V38.394C184.039 38.3271 184.621 38.0427 184.912 37.5408C185.229 37.0389 185.388 36.1188 185.388 34.7804V19.9749C185.388 18.2351 185.137 16.9302 184.634 16.0602C184.158 15.1903 183.417 14.7553 182.412 14.7553C181.697 14.7553 181.023 15.0063 180.388 15.5082C179.779 16.01 179.237 16.7629 178.76 17.7666V16.7629C179.395 15.4245 180.229 14.404 181.261 13.7014C182.319 12.9987 183.51 12.6474 184.832 12.6474C186.817 12.6474 188.338 13.417 189.396 14.9561C190.481 16.4952 191.024 18.7202 191.024 21.6311V34.7804C191.024 36.1188 191.235 37.0389 191.659 37.5408C192.082 38.0427 192.862 38.3271 194 38.394V39.2974C193.63 39.2639 193.127 39.2472 192.492 39.2472C191.883 39.2137 191.209 39.1803 190.468 39.1468C189.754 39.1133 189.039 39.0966 188.325 39.0966C187.319 39.0966 186.327 39.1301 185.348 39.197C184.369 39.2304 183.642 39.2639 183.166 39.2974ZM170.268 39.2974V38.394C171.405 38.3271 172.186 38.0427 172.609 37.5408C173.032 37.0389 173.244 36.1188 173.244 34.7804V5.87202C173.244 4.33292 173.019 3.2455 172.569 2.60979C172.146 1.94061 171.379 1.55583 170.268 1.45546V0.55207C170.85 0.585528 171.366 0.618987 171.815 0.652446C172.292 0.685905 172.768 0.702634 173.244 0.702634C174.223 0.702634 175.175 0.652446 176.101 0.55207C177.027 0.418235 177.954 0.234211 178.88 0V34.7804C178.88 36.1188 179.025 37.0389 179.316 37.5408C179.634 38.0427 180.216 38.3271 181.062 38.394V39.2974C180.586 39.2639 179.885 39.2304 178.959 39.197C178.059 39.1301 177.107 39.0966 176.101 39.0966C175.043 39.0966 173.945 39.1301 172.808 39.197C171.67 39.2304 170.823 39.2639 170.268 39.2974Z" fill="black"/>
</svg>
