<svg width="59" height="26" viewBox="0 0 59 26" fill="none" xmlns="http://www.w3.org/2000/svg">
<path d="M1 4.99044C0.999949 2.93846 3.70136 1 6.17761 1C5.1646 2.18635 3.83059 3.34607 4.37663 4.99044C6.74032 12.1085 23.3988 14.0498 30.4899 14.0498C37.5809 14.0498 53.3669 12.3242 55.1397 4.99044C55.4265 3.80409 54.6895 2.61774 52.8886 1C54.4644 1 57.5034 2.72559 57.7285 4.99044C57.8616 6.32952 56.4995 10.5339 50.5249 13.7473C50.7501 14.5232 54.3519 18.1481 56.603 19.1187C58.8541 20.0894 58.1788 20.8021 56.0402 20.0894C53.9016 19.3766 51.3128 17.7167 48.6115 14.6689C45.9715 15.8058 42.615 16.7427 38.3688 17.2655C38.9316 19.1187 40.5074 21.5993 41.7455 23.4327C43.4339 25.1583 42.1958 25.4819 40.9576 24.0798C39.7129 22.6703 37.806 21.1679 36.3428 17.4768C34.5408 17.6322 32.5935 17.7167 30.4899 17.7167C29.0357 17.7167 27.6484 17.6788 26.3253 17.6071C25.9125 18.7221 25.1997 21.7071 21.9355 24.0798C19.4826 25.8628 19.6844 24.7269 21.1476 23.4327C22.3623 22.3584 23.6614 19.1807 24.1867 17.4768C20.2192 17.0626 15.7857 16.1976 13.0436 15.2741C11.0175 17.4691 6.85295 19.658 4.37663 20.0894C1.90031 20.5208 1.99577 19.8048 4.03903 19.1187C8.5413 17.6071 9.51679 15.9861 11.1301 14.4812C3.96151 11.3591 1.00004 6.7763 1 4.99044Z" fill="#776D6D"/>
<path d="M11.1301 14.4812C3.96151 11.3591 1.00004 6.7763 1 4.99044C0.999949 2.93846 3.70136 1 6.17761 1C5.1646 2.18635 3.83059 3.34607 4.37663 4.99044C6.74032 12.1085 23.3988 14.0498 30.4899 14.0498C37.5809 14.0498 53.3669 12.3242 55.1397 4.99044C55.4265 3.80409 54.6895 2.61774 52.8886 1C54.4644 1 57.5034 2.72559 57.7285 4.99044C57.8616 6.32952 56.4995 10.5339 50.5249 13.7473M11.1301 14.4812C9.51679 15.9861 8.5413 17.6071 4.03903 19.1187C1.99577 19.8048 1.90031 20.5208 4.37663 20.0894C6.85295 19.658 11.0175 17.4691 13.0436 15.2741M11.1301 14.4812C11.9309 14.83 12.1173 14.9622 13.0436 15.2741M13.0436 15.2741C15.7857 16.1976 20.2192 17.0626 24.1867 17.4768M24.1867 17.4768C23.6614 19.1807 22.3623 22.3584 21.1476 23.4327C19.6844 24.7269 19.4826 25.8628 21.9355 24.0798C25.1997 21.7071 25.9125 18.7221 26.3253 17.6071M24.1867 17.4768C25.2287 17.5856 25.1906 17.5456 26.3253 17.6071M26.3253 17.6071C27.6484 17.6788 29.0357 17.7167 30.4899 17.7167C32.5935 17.7167 34.5408 17.6322 36.3428 17.4768M36.3428 17.4768C37.806 21.1679 39.7129 22.6703 40.9576 24.0798C42.1958 25.4819 43.4339 25.1583 41.7455 23.4327C40.5074 21.5993 38.9316 19.1187 38.3688 17.2655M36.3428 17.4768C37.0397 17.4167 37.7148 17.346 38.3688 17.2655M38.3688 17.2655C42.615 16.7427 45.9715 15.8058 48.6115 14.6689M48.6115 14.6689C51.3128 17.7167 53.9016 19.3766 56.0402 20.0894C58.1788 20.8021 58.8541 20.0894 56.603 19.1187C54.3519 18.1481 50.7501 14.5232 50.5249 13.7473M48.6115 14.6689C49.2965 14.3739 49.9334 14.0655 50.5249 13.7473" stroke="#797979" stroke-opacity="0.7"/>
</svg>
