<svg width="59" height="23" viewBox="0 0 59 23" fill="none" xmlns="http://www.w3.org/2000/svg">
<path fill-rule="evenodd" clip-rule="evenodd" d="M17.5624 22C12.2783 19.6685 1.57223 14.4927 1.02085 12.441C0.331613 9.87642 16.8732 0.550592 29.9686 1.01688C43.064 1.48318 57.7675 9.17699 57.9972 12.441C58.2269 15.7051 44.2126 22 41.6854 22C40.4132 22 43.1579 19.9914 46.1685 17.7882C49.1387 15.6146 52.3677 13.2515 52.2536 12.441C52.0239 10.809 38.4689 6.37923 37.3202 6.84552C38.4689 8.24439 39.1582 9.64328 38.9284 12.441C38.6987 15.2388 34.5637 18.9691 29.9686 18.9691C25.3735 18.9691 21.0084 15.2388 21.0084 12.441C21.0084 9.64328 21.6976 8.01125 22.6166 6.84552C17.7154 7.54496 8.37246 9.64328 6.5345 12.441C5.96109 13.3139 9.14456 15.2079 12.3175 17.0957C15.9247 19.2418 19.5182 21.3798 17.5624 22ZM23.7653 10.809C23.7653 9.17697 24.914 7.54496 26.752 7.54496C28.5899 7.54496 29.5089 9.41012 29.5089 10.809C29.5089 12.2079 28.3602 13.6067 26.752 13.6067C25.1438 13.6067 23.7653 12.441 23.7653 10.809Z" fill="#776D6D" stroke="#797979" stroke-opacity="0.7"/>
</svg>
