<svg width="320" height="320" viewBox="0 0 320 320" fill="none" xmlns="http://www.w3.org/2000/svg">
<g filter="url(#filter0_i_539_3694)">
<path d="M320 187.042V132.957C264.39 139.641 213.986 142.19 169.879 142.473C171.037 76.8795 180.378 26.9345 187.039 -2.38419e-06H132.955C142.734 51.6498 147.031 99.669 148.045 142.432C85.4663 141.792 37.3113 136.812 7.20135 133.699C4.6738 133.437 2.2711 133.189 -2.38419e-06 132.957V187.042C54.2205 179.176 104.131 176.279 148.19 176.038C147.181 242.365 138.708 292.862 132.955 320H187.039C175.987 267.771 171.141 219.255 170.021 176.132C227.596 176.941 273.705 182 304.387 185.365C310.143 185.997 315.356 186.569 320 187.042Z" fill="#F8F8F1"/>
</g>
<defs>
<filter id="filter0_i_539_3694" x="0" y="0" width="320" height="320" filterUnits="userSpaceOnUse" color-interpolation-filters="sRGB">
<feFlood flood-opacity="0" result="BackgroundImageFix"/>
<feBlend mode="normal" in="SourceGraphic" in2="BackgroundImageFix" result="shape"/>
<feColorMatrix in="SourceAlpha" type="matrix" values="0 0 0 0 0 0 0 0 0 0 0 0 0 0 0 0 0 0 127 0" result="hardAlpha"/>
<feMorphology radius="2" operator="erode" in="SourceAlpha" result="effect1_innerShadow_539_3694"/>
<feOffset/>
<feGaussianBlur stdDeviation="8.75"/>
<feComposite in2="hardAlpha" operator="arithmetic" k2="-1" k3="1"/>
<feColorMatrix type="matrix" values="0 0 0 0 0 0 0 0 0 0 0 0 0 0 0 0 0 0 0.25 0"/>
<feBlend mode="normal" in2="shape" result="effect1_innerShadow_539_3694"/>
</filter>
</defs>
</svg>
