<svg width="200" height="240" viewBox="0 0 200 240" fill="none" xmlns="http://www.w3.org/2000/svg">
<g opacity="0.3">
<path opacity="0.3" d="M139.67 49.24C134.202 49.2373 128.959 47.0641 125.093 43.1976C121.226 39.3312 119.053 34.0879 119.05 28.62V0H26.9102C23.3754 -2.4406e-07 19.8754 0.696337 16.6099 2.04932C13.3443 3.4023 10.3771 5.38537 7.87818 7.88525C5.37922 10.3851 3.39742 13.3529 2.04566 16.6189C0.69389 19.8849 -0.00131167 23.3853 1.85789e-06 26.92V189.13C-0.00131167 192.665 0.69389 196.165 2.04566 199.431C3.39742 202.697 5.37922 205.665 7.87818 208.165C10.3771 210.665 13.3443 212.648 16.6099 214.001C19.8754 215.354 23.3754 216.05 26.9102 216.05H137.51C141.045 216.05 144.545 215.354 147.81 214.001C151.076 212.648 154.043 210.665 156.542 208.165C159.041 205.665 161.023 202.697 162.375 199.431C163.726 196.165 164.421 192.665 164.42 189.13V49.25L139.67 49.24Z" fill="#0072FF"/>
</g>
<path d="M164.42 49.24H139.67C134.202 49.2373 128.959 47.0641 125.093 43.1976C121.226 39.3312 119.053 34.0879 119.05 28.62V0L164.42 49.24Z" fill="#0072FF"/>
<path d="M104.3 146.41H60.1301C55.8061 146.405 51.6606 144.685 48.603 141.627C45.5455 138.57 43.8254 134.424 43.8201 130.1V85.9301C43.8254 81.606 45.5455 77.4605 48.603 74.403C51.6606 71.3454 55.8061 69.6253 60.1301 69.62H104.3C108.623 69.6253 112.768 71.3457 115.823 74.4036C118.879 77.4614 120.597 81.6069 120.6 85.9301V130.1C120.597 134.423 118.879 138.569 115.823 141.626C112.768 144.684 108.623 146.405 104.3 146.41ZM60.1301 76.83C57.7175 76.8326 55.4042 77.7923 53.6982 79.4983C51.9922 81.2043 51.0327 83.5174 51.03 85.9301V130.1C51.0327 132.513 51.9922 134.826 53.6982 136.532C55.4042 138.238 57.7175 139.197 60.1301 139.2H104.3C106.712 139.197 109.024 138.237 110.728 136.531C112.433 134.825 113.39 132.512 113.39 130.1V85.9301C113.39 83.5183 112.433 81.2052 110.728 79.4989C109.024 77.7926 106.712 76.8326 104.3 76.83H60.1301Z" fill="#0072FF"/>
<path d="M117 121.7V130.1C116.997 133.467 115.658 136.696 113.277 139.077C110.896 141.458 107.667 142.797 104.3 142.8H60.1301C56.7619 142.8 53.5316 141.462 51.1499 139.08C48.7682 136.698 47.4302 133.468 47.4302 130.1V116C54.5002 114.48 65.2701 114 78.3401 119.22L86.4402 111.5L91.96 125.5C91.96 125.5 93.44 120.35 98.22 121.08C103 121.81 110.74 124.4 114.05 122.19C114.942 121.675 115.99 121.501 117 121.7V121.7Z" fill="#0072FF"/>
<path d="M101.53 94.95C104.242 94.95 106.44 92.7518 106.44 90.04C106.44 87.3283 104.242 85.13 101.53 85.13C98.8183 85.13 96.6201 87.3283 96.6201 90.04C96.6201 92.7518 98.8183 94.95 101.53 94.95Z" fill="#0072FF"/>
<path d="M183.94 170.6H58.9001C50.0305 170.6 42.8401 177.79 42.8401 186.66V223.94C42.8401 232.81 50.0305 240 58.9001 240H183.94C192.81 240 200 232.81 200 223.94V186.66C200 177.79 192.81 170.6 183.94 170.6Z" fill="#0072FF"/>
<path d="M63.5298 212.79V220.07H56V212.79H63.5298Z" fill="white"/>
<path d="M107.56 190L100.37 220.07H91.3699L86.5698 199.95L81.7198 220.07H72.7198L65.5298 190H73.4398L77.3098 211.78L82.5898 190H90.5898L95.8699 211.78L99.7798 190H107.56Z" fill="white"/>
<path d="M119.36 195.78V202.08H129.53V207.56H119.36V214.24H130.8V220.07H112.09V190H130.8V195.78H119.36Z" fill="white"/>
<path d="M159.36 207.26C160.415 208.574 160.977 210.215 160.95 211.9C161.002 213.029 160.798 214.155 160.353 215.195C159.908 216.234 159.234 217.159 158.38 217.9C156.66 219.34 154.2 220.07 151 220.07H137V190H150.65C153.71 190 156.077 190.667 157.75 192C158.587 192.686 159.25 193.56 159.686 194.55C160.122 195.54 160.319 196.619 160.26 197.7C160.323 199.332 159.814 200.934 158.82 202.23C157.868 203.432 156.529 204.266 155.03 204.59C156.737 204.958 158.265 205.9 159.36 207.26V207.26ZM144.28 202.33H149.04C151.567 202.33 152.83 201.25 152.83 199.09C152.83 196.93 151.54 195.853 148.96 195.86H144.28V202.33ZM153.51 210.88C153.533 210.406 153.45 209.933 153.267 209.495C153.083 209.057 152.804 208.666 152.45 208.35C151.593 207.693 150.528 207.367 149.45 207.43H144.3V214.19H149.49C152.17 214.19 153.51 213.087 153.51 210.88V210.88Z" fill="white"/>
<path d="M172.28 209.52V220.07H165V190H176.78C180.36 190 183.083 190.883 184.95 192.65C185.896 193.581 186.635 194.7 187.119 195.935C187.604 197.171 187.822 198.495 187.76 199.82C187.791 201.569 187.357 203.295 186.5 204.82C185.635 206.315 184.338 207.514 182.78 208.26C180.909 209.152 178.852 209.584 176.78 209.52H172.28ZM180.36 199.82C180.36 197.153 178.9 195.82 175.98 195.82H172.28V203.65H175.98C178.9 203.677 180.36 202.4 180.36 199.82V199.82Z" fill="white"/>
</svg>
