<svg width="201" height="240" viewBox="0 0 201 240" fill="none" xmlns="http://www.w3.org/2000/svg">
<g opacity="0.3">
<path opacity="0.3" d="M139.67 49.25C134.203 49.2447 128.961 47.0704 125.095 43.2046C121.23 39.3387 119.055 34.097 119.05 28.6299V0H26.9102C19.7732 0 12.9284 2.83523 7.88184 7.88184C2.83523 12.9284 0 19.7729 0 26.9099V189.13C0 196.267 2.83523 203.112 7.88184 208.158C12.9284 213.205 19.7732 216.04 26.9102 216.04H137.51C144.647 216.04 151.492 213.205 156.538 208.158C161.585 203.112 164.42 196.267 164.42 189.13V49.25H139.67Z" fill="#00C650"/>
</g>
<path d="M164.42 49.25H139.67C134.203 49.2447 128.961 47.0704 125.095 43.2046C121.23 39.3387 119.055 34.097 119.05 28.6299V0L164.42 49.25Z" fill="#00C650"/>
<path d="M184.1 170.61H59.0601C50.1904 170.61 43 177.8 43 186.67V223.95C43 232.82 50.1904 240.01 59.0601 240.01H184.1C192.97 240.01 200.16 232.82 200.16 223.95V186.67C200.16 177.8 192.97 170.61 184.1 170.61Z" fill="#00C650"/>
<path d="M71.53 213.692V220.962H64V213.692H71.53Z" fill="white"/>
<path d="M93.9399 220.962L87.6101 211.602L82.1602 220.962H73.8301L83.4399 205.482L73.53 190.892H82.1602L88.3301 199.952L93.6501 190.892H101.94L92.46 206.032L102.58 220.962H93.9399Z" fill="white"/>
<path d="M115.26 215.201H125V220.77H108V190.701H115.28L115.26 215.201Z" fill="white"/>
<path d="M148.299 216.379C147.436 217.76 146.197 218.866 144.729 219.569C142.941 220.406 140.982 220.813 139.009 220.759C136.032 220.883 133.098 220.014 130.669 218.289C129.594 217.482 128.715 216.444 128.097 215.251C127.479 214.059 127.138 212.742 127.099 211.399H134.839C134.894 212.412 135.325 213.367 136.049 214.079C136.769 214.75 137.725 215.109 138.709 215.079C139.109 215.102 139.511 215.046 139.89 214.914C140.27 214.782 140.619 214.576 140.919 214.309C141.185 214.05 141.395 213.739 141.535 213.394C141.674 213.05 141.74 212.68 141.729 212.309C141.738 211.956 141.677 211.605 141.548 211.277C141.42 210.949 141.226 210.65 140.979 210.399C140.449 209.863 139.821 209.435 139.129 209.139C138.402 208.819 137.382 208.429 136.069 207.969C134.475 207.443 132.918 206.812 131.409 206.079C130.168 205.44 129.104 204.506 128.309 203.359C127.386 201.97 126.931 200.324 127.009 198.659C126.972 197.009 127.448 195.388 128.369 194.019C129.315 192.681 130.622 191.64 132.139 191.019C133.886 190.308 135.763 189.967 137.649 190.019C140.512 189.861 143.341 190.706 145.649 192.409C146.631 193.208 147.435 194.203 148.011 195.331C148.586 196.459 148.919 197.694 148.989 198.959H141.119C141.031 198.074 140.651 197.244 140.039 196.599C139.726 196.299 139.355 196.067 138.949 195.915C138.544 195.764 138.111 195.697 137.679 195.719C136.929 195.685 136.192 195.927 135.609 196.399C135.339 196.654 135.13 196.966 134.995 197.311C134.86 197.657 134.803 198.029 134.829 198.399C134.813 199.071 135.065 199.722 135.529 200.209C136.026 200.728 136.625 201.14 137.289 201.419C137.999 201.729 139.019 202.129 140.349 202.609C141.971 203.137 143.552 203.786 145.079 204.549C146.325 205.221 147.4 206.173 148.219 207.329C149.152 208.739 149.614 210.409 149.539 212.099C149.525 213.612 149.096 215.093 148.299 216.379V216.379Z" fill="white"/>
<path d="M171.957 220.77L165.627 211.411L160.177 220.77H151.847L161.457 205.29L151.547 190.701H160.177L166.347 199.76L171.667 190.701H179.957L170.477 205.841L180.597 220.77H171.957Z" fill="white"/>
<path d="M118.89 150.84H45.5701C39.2201 150.84 34.05 144.52 34.05 136.74V83.55C34.05 75.78 39.2201 69.46 45.5701 69.46H118.92C125.26 69.46 130.43 75.78 130.43 83.55V136.74C130.4 144.52 125.23 150.84 118.89 150.84ZM45.5701 76.6599C42.4601 76.6599 39.9402 79.75 39.9402 83.55V136.74C39.9402 140.54 42.4601 143.63 45.5701 143.63H118.92C122.02 143.63 124.54 140.54 124.54 136.74V83.55C124.54 79.75 122.02 76.6599 118.92 76.6599H45.5701Z" fill="#00C650"/>
<path d="M127.46 118.81H36.97V126.02H127.46V118.81Z" fill="#00C650"/>
<path d="M127.46 94.09H36.97V101.3H127.46V94.09Z" fill="#00C650"/>
<path d="M104.28 73.06H97.0701V147.23H104.28V73.06Z" fill="#00C650"/>
<path d="M67.3501 73.06H60.1401V147.23H67.3501V73.06Z" fill="#00C650"/>
</svg>
